Coordinates
version=1
nRows=14
nColumns=63
inDegrees=yes

Units are S.I. units (second, meters, Newtons, ...)
If the header above contains a line with 'inDegrees', this indicates whether rotational values are in degrees (yes) or radians (no).

endheader
time	pelvis_tilt	pelvis_list	pelvis_rotation	pelvis_tx	pelvis_ty	pelvis_tz	hip_flexion_r	hip_adduction_r	hip_rotation_r	knee_angle_r	knee_angle_r_beta	ankle_angle_r	subtalar_angle_r	mtp_angle_r	hip_flexion_l	hip_adduction_l	hip_rotation_l	knee_angle_l	knee_angle_l_beta	ankle_angle_l	subtalar_angle_l	mtp_angle_l	L5_S1_Flex_Ext	L5_S1_Lat_Bending	L5_S1_axial_rotation	L4_L5_Flex_Ext	L4_L5_Lat_Bending	L4_L5_axial_rotation	L3_L4_Flex_Ext	L3_L4_Lat_Bending	L3_L4_axial_rotation	L2_L3_Flex_Ext	L2_L3_Lat_Bending	L2_L3_axial_rotation	L1_L2_Flex_Ext	L1_L2_Lat_Bending	L1_L2_axial_rotation	L1_T12_Flex_Ext	L1_T12_Lat_Bending	L1_T12_axial_rotation	Abs_r3	Abs_r2	Abs_r1	Abs_t1	Abs_t2	neck_flexion	neck_bending	neck_rotation	arm_flex_r	arm_add_r	arm_rot_r	elbow_flex_r	pro_sup_r	wrist_flex_r	wrist_dev_r	arm_flex_l	arm_add_l	arm_rot_l	elbow_flex_l	pro_sup_l	wrist_flex_l	wrist_dev_l
3.683333	-2.397738	2.393170	91.434290	0.105163	0.922095	0.536022	-4.983078	2.537746	16.373821	7.483070	0.130604	33.560639	-11.789290	0.000000	-8.996569	0.976915	1.205939	1.190275	0.020774	32.977693	-12.703795	0.000000	0.117801	-0.820317	-0.329456	0.218769	-1.091022	-0.350047	0.193536	-1.994519	-0.350047	0.134635	-1.994519	-0.288274	0.109390	-1.672790	-0.267683	0.067312	-1.270671	-0.247092	0.841442	-9.279589	-1.832334	0.000000	0.000000	5.885960	8.661226	3.111599	26.099741	-57.845577	-7.726514	104.204274	67.542362	-7.677210	-2.336038	24.871997	-23.568079	-3.145682	75.530997	82.804069	-12.900095	8.380418
3.700000	-2.415300	2.381125	91.563006	0.105754	0.921847	0.536571	-4.928141	2.574274	16.447144	7.603677	0.132709	33.656223	-11.943568	0.000000	-8.911118	0.922924	1.204272	1.251997	0.021851	33.116080	-12.529623	0.000000	0.113307	-0.843355	-0.423944	0.210423	-1.121662	-0.450441	0.186153	-2.050534	-0.450441	0.129499	-2.050534	-0.370951	0.105217	-1.719770	-0.344455	0.064744	-1.306357	-0.317958	0.809342	-9.540202	-2.357850	0.000000	0.000000	5.948764	8.826244	3.018774	25.988706	-57.495223	-7.335073	104.158402	65.812160	-7.323935	-2.347776	24.313647	-24.130460	-4.162383	73.314445	82.259600	-12.697578	8.675225
3.716667	-2.434029	2.375881	91.686967	0.106221	0.921710	0.536913	-4.890852	2.600466	16.479406	7.746631	0.135204	33.732849	-12.080432	0.000000	-8.848329	0.877769	1.154088	1.305344	0.022783	33.268190	-12.294703	0.000000	0.110922	-0.863460	-0.501795	0.205994	-1.148402	-0.533157	0.182234	-2.099416	-0.533157	0.126773	-2.099416	-0.439070	0.103002	-1.760767	-0.407708	0.063381	-1.337499	-0.376346	0.792306	-9.767631	-2.790831	0.000000	0.000000	5.952248	8.902160	2.933591	25.863257	-57.262714	-6.992951	104.162129	64.230049	-6.998419	-2.221296	23.815045	-24.597949	-4.931996	71.425414	81.882955	-12.469749	8.832322
3.733333	-2.452538	2.394634	91.810939	0.106567	0.921709	0.537071	-4.884228	2.622579	16.481927	7.914479	0.138134	33.788444	-12.218747	0.000000	-8.826744	0.837757	1.100671	1.342689	0.023434	33.419594	-12.053142	0.000000	0.107663	-0.880519	-0.560848	0.199940	-1.171090	-0.595901	0.176879	-2.140893	-0.595901	0.123048	-2.140893	-0.490742	0.099975	-1.795554	-0.455689	0.061518	-1.363923	-0.420636	0.769023	-9.960603	-3.119267	0.000000	0.000000	5.908029	8.917062	2.853821	25.714045	-57.126592	-6.723550	104.204525	63.256786	-6.771384	-1.893630	23.337415	-24.951523	-5.386072	69.960019	81.717180	-12.200545	8.868967
3.750000	-2.452309	2.431342	91.910511	0.106766	0.921840	0.537046	-4.910335	2.651345	16.469385	8.071041	0.140866	33.813181	-12.322135	0.000000	-8.841280	0.791271	1.017985	1.362440	0.023779	33.577151	-11.807157	0.000000	0.105168	-0.890703	-0.589833	0.195308	-1.184635	-0.626697	0.172781	-2.165656	-0.626697	0.120197	-2.165656	-0.516103	0.097659	-1.816322	-0.479239	0.060093	-1.379699	-0.442374	0.751207	-10.075813	-3.280471	0.000000	0.000000	5.821078	8.851142	2.755658	25.559002	-57.123162	-6.511769	104.312365	62.717646	-6.623399	-1.265867	22.870505	-25.175766	-5.477829	68.960274	81.736267	-11.850713	8.696516
3.766667	-2.453964	2.497922	92.011249	0.106798	0.922126	0.536890	-4.976768	2.669643	16.413454	8.209879	0.143289	33.823262	-12.379740	0.000000	-8.897930	0.755054	0.919836	1.368147	0.023879	33.720999	-11.552450	0.000000	0.102728	-0.896194	-0.608660	0.190776	-1.191939	-0.646701	0.168772	-2.179007	-0.646701	0.117408	-2.179007	-0.532577	0.095393	-1.827520	-0.494536	0.058699	-1.388205	-0.456495	0.733777	-10.137931	-3.385184	0.000000	0.000000	5.653567	8.756795	2.741715	25.636619	-57.146529	-6.085919	104.386761	62.801259	-6.631790	-0.489749	22.329048	-25.318921	-5.330156	68.514558	81.848949	-11.485731	8.440729
3.783333	-2.437330	2.601799	92.087153	0.106657	0.922569	0.536637	-5.084826	2.692930	16.340354	8.326773	0.145330	33.833085	-12.364408	0.000000	-9.006255	0.715112	0.799827	1.359377	0.023726	33.851675	-11.302612	0.000000	0.100034	-0.892826	-0.614726	0.185773	-1.187459	-0.653147	0.164346	-2.170818	-0.653147	0.114329	-2.170818	-0.537885	0.092892	-1.820651	-0.499465	0.057159	-1.382988	-0.461045	0.714533	-10.099829	-3.418923	0.000000	0.000000	5.383405	8.588835	2.833223	26.009389	-57.188439	-5.411945	104.448031	63.408124	-6.733598	0.589434	21.711696	-25.398403	-5.023825	68.619545	81.949807	-11.103124	8.266109
3.800000	-2.404940	2.748265	92.137146	0.106370	0.923193	0.536336	-5.237344	2.720941	16.262960	8.415928	0.146886	33.830092	-12.294876	0.000000	-9.169223	0.672898	0.664512	1.339517	0.023379	33.955055	-11.061203	0.000000	0.096428	-0.881793	-0.606314	0.179076	-1.172784	-0.644208	0.158421	-2.143991	-0.644208	0.110207	-2.143991	-0.530524	0.089543	-1.798152	-0.492630	0.055099	-1.365897	-0.454735	0.688775	-9.975017	-3.372134	0.000000	0.000000	4.989656	8.384113	2.975418	26.582012	-57.214449	-4.599863	104.522255	64.461632	-6.905548	1.956484	21.075218	-25.403170	-4.681049	69.217152	82.180976	-10.712083	8.340413
3.816667	-2.340876	2.939406	92.121099	0.105935	0.923987	0.536060	-5.424682	2.761013	16.177530	8.489919	0.148177	33.824670	-12.118018	0.000000	-9.388878	0.624658	0.486753	1.311507	0.022890	34.018096	-10.855080	0.000000	0.090951	-0.858881	-0.582883	0.168906	-1.142312	-0.619313	0.149424	-2.088283	-0.619313	0.103948	-2.088283	-0.510022	0.084458	-1.751430	-0.473592	0.051970	-1.330406	-0.437162	0.649657	-9.715832	-3.241818	0.000000	0.000000	4.488931	8.070027	3.247452	27.466493	-57.199899	-3.558553	104.576686	65.921798	-7.144199	3.600722	20.444745	-25.359148	-4.413532	70.198894	82.148331	-10.412072	8.603816
3.833333	-2.264478	3.178939	92.079842	0.105349	0.924927	0.535746	-5.668013	2.802195	16.133124	8.534046	0.148947	33.786885	-11.955349	0.000000	-9.673420	0.581757	0.347092	1.273712	0.022230	34.027266	-10.729578	0.000000	0.082519	-0.828003	-0.559155	0.153246	-1.101244	-0.594102	0.135571	-2.013207	-0.594102	0.094311	-2.013207	-0.489261	0.076627	-1.688464	-0.454313	0.047151	-1.282577	-0.419366	0.589426	-9.366536	-3.109852	0.000000	0.000000	3.903228	7.719105	3.661100	28.685674	-57.152097	-2.209643	104.605965	67.034178	-7.307877	5.454578	19.830758	-25.292658	-4.458893	71.600055	81.667166	-10.005415	9.396639
3.850000	-2.160509	3.440698	91.977210	0.104651	0.925960	0.535445	-5.931040	2.853710	16.099893	8.563913	0.149468	33.715159	-11.737950	0.000000	-9.993538	0.535120	0.200682	1.227424	0.021423	33.990271	-10.674500	0.000000	0.072507	-0.786787	-0.535281	0.134652	-1.046427	-0.568736	0.119121	-1.912994	-0.568736	0.082868	-1.912994	-0.468371	0.067330	-1.604416	-0.434916	0.041430	-1.218733	-0.401461	0.517908	-8.900293	-2.977074	0.000000	0.000000	3.324478	7.284461	4.219465	30.295657	-57.040154	-0.533558	104.602587	68.059088	-7.460008	7.448143	19.237634	-25.178444	-4.942197	73.368183	80.907104	-9.637976	10.471893
3.866667	-2.056403	3.719398	91.837876	0.103873	0.927060	0.535141	-6.206616	2.896275	16.090691	8.601482	0.150124	33.599443	-11.540612	0.000000	-10.340305	0.506764	0.079623	1.178189	0.020563	33.909620	-10.703547	0.000000	0.060099	-0.740623	-0.508375	0.111609	-0.985029	-0.540148	0.098736	-1.800751	-0.540148	0.068687	-1.800751	-0.444828	0.055807	-1.510278	-0.413054	0.034340	-1.147225	-0.381281	0.429278	-8.378075	-2.827428	0.000000	0.000000	2.792673	6.823966	4.821127	32.104426	-56.917794	1.289898	104.637410	68.813191	-7.544227	9.558578	18.722314	-25.038302	-5.808637	75.409609	79.648664	-9.271909	11.296481
3.883333	-1.950333	3.993876	91.647015	0.103064	0.928172	0.534822	-6.473565	2.931403	16.107408	8.651524	0.150998	33.445827	-11.352481	0.000000	-10.693568	0.494911	-0.034941	1.122663	0.019594	33.789786	-10.806993	0.000000	0.047733	-0.690141	-0.471896	0.088644	-0.917888	-0.501389	0.078420	-1.678009	-0.501389	0.054554	-1.678009	-0.412909	0.044324	-1.407336	-0.383415	0.027274	-1.069029	-0.353922	0.340949	-7.807014	-2.624543	0.000000	0.000000	2.387721	6.336454	5.387855	33.958766	-56.841574	3.121330	104.756418	69.544112	-7.602632	11.641978	18.311064	-24.863177	-7.034479	77.708191	77.948938	-8.931153	11.650276
3.900000	-1.843085	4.251439	91.406742	0.102229	0.929255	0.534483	-6.720232	2.957609	16.144456	8.714156	0.152091	33.257331	-11.165620	0.000000	-11.037742	0.499565	-0.153003	1.063718	0.018565	33.641080	-10.972905	0.000000	0.036789	-0.635689	-0.421765	0.068321	-0.845466	-0.448126	0.060441	-1.545614	-0.448126	0.042046	-1.545614	-0.369045	0.034162	-1.296297	-0.342684	0.021021	-0.984682	-0.316324	0.262781	-7.191039	-2.345732	0.000000	0.000000	2.149245	5.819388	5.865309	35.661723	-56.869675	4.773675	105.010933	70.409046	-7.660722	13.583578	18.032588	-24.645340	-8.571807	80.250564	75.878506	-8.621123	11.395054
